<mxfile host="65bd71144e">
    <diagram id="0fiBWgrXSbrucCPLC_0t" name="Page-1">
        <mxGraphModel dx="687" dy="609" grid="0" gridSize="10" guides="1" tooltips="1" connect="1" arrows="1" fold="1" page="1" pageScale="1" pageWidth="850" pageHeight="1100" background="#ffffff" math="0" shadow="1">
            <root>
                <mxCell id="0"/>
                <mxCell id="1" parent="0"/>
                <mxCell id="6l1E8BhhTPS93ofHY3in-2" value="User" style="ellipse;whiteSpace=wrap;html=1;sketch=1;rounded=1;" parent="1" vertex="1">
                    <mxGeometry x="150" y="180" width="120" height="80" as="geometry"/>
                </mxCell>
                <mxCell id="6l1E8BhhTPS93ofHY3in-3" value="hasMany" style="edgeStyle=orthogonalEdgeStyle;rounded=1;orthogonalLoop=1;jettySize=auto;html=1;entryDx=0;entryDy=0;noEdgeStyle=1;orthogonal=1;sketch=1;curved=1;" parent="1" source="6l1E8BhhTPS93ofHY3in-8" target="6l1E8BhhTPS93ofHY3in-10" edge="1">
                    <mxGeometry relative="1" as="geometry">
                        <Array as="points">
                            <mxPoint x="316" y="92"/>
                            <mxPoint x="60" y="168"/>
                        </Array>
                    </mxGeometry>
                </mxCell>
                <mxCell id="6l1E8BhhTPS93ofHY3in-4" value="belongsTo" style="edgeStyle=orthogonalEdgeStyle;rounded=1;orthogonalLoop=1;jettySize=auto;html=1;noEdgeStyle=1;orthogonal=1;sketch=1;curved=1;" parent="1" source="6l1E8BhhTPS93ofHY3in-8" target="6l1E8BhhTPS93ofHY3in-2" edge="1">
                    <mxGeometry relative="1" as="geometry">
                        <Array as="points">
                            <mxPoint x="338" y="94"/>
                            <mxPoint x="210" y="168"/>
                        </Array>
                    </mxGeometry>
                </mxCell>
                <mxCell id="6l1E8BhhTPS93ofHY3in-5" value="hasMany" style="edgeStyle=orthogonalEdgeStyle;rounded=1;orthogonalLoop=1;jettySize=auto;html=1;noEdgeStyle=1;orthogonal=1;sketch=1;curved=1;" parent="1" source="6l1E8BhhTPS93ofHY3in-8" target="6l1E8BhhTPS93ofHY3in-12" edge="1">
                    <mxGeometry relative="1" as="geometry">
                        <Array as="points">
                            <mxPoint x="360" y="96"/>
                            <mxPoint x="360" y="168"/>
                        </Array>
                    </mxGeometry>
                </mxCell>
                <mxCell id="6l1E8BhhTPS93ofHY3in-6" value="hasMany" style="edgeStyle=orthogonalEdgeStyle;rounded=1;orthogonalLoop=1;jettySize=auto;html=1;noEdgeStyle=1;orthogonal=1;sketch=1;curved=1;" parent="1" source="6l1E8BhhTPS93ofHY3in-8" target="6l1E8BhhTPS93ofHY3in-14" edge="1">
                    <mxGeometry relative="1" as="geometry">
                        <Array as="points">
                            <mxPoint x="382" y="94"/>
                            <mxPoint x="510" y="168"/>
                        </Array>
                    </mxGeometry>
                </mxCell>
                <mxCell id="6l1E8BhhTPS93ofHY3in-7" value="hasMany" style="edgeStyle=orthogonalEdgeStyle;rounded=1;orthogonalLoop=1;jettySize=auto;html=1;noEdgeStyle=1;orthogonal=1;sketch=1;curved=1;" parent="1" source="6l1E8BhhTPS93ofHY3in-8" target="6l1E8BhhTPS93ofHY3in-16" edge="1">
                    <mxGeometry relative="1" as="geometry">
                        <Array as="points">
                            <mxPoint x="404" y="92"/>
                            <mxPoint x="660" y="168"/>
                        </Array>
                    </mxGeometry>
                </mxCell>
                <mxCell id="6l1E8BhhTPS93ofHY3in-8" value="Market" style="ellipse;whiteSpace=wrap;html=1;sketch=1;rounded=1;" parent="1" vertex="1">
                    <mxGeometry x="300" width="120" height="80" as="geometry"/>
                </mxCell>
                <mxCell id="6l1E8BhhTPS93ofHY3in-10" value="Product" style="ellipse;whiteSpace=wrap;html=1;sketch=1;rounded=1;" parent="1" vertex="1">
                    <mxGeometry y="180" width="120" height="80" as="geometry"/>
                </mxCell>
                <mxCell id="6l1E8BhhTPS93ofHY3in-12" value="Review" style="ellipse;whiteSpace=wrap;html=1;sketch=1;rounded=1;" parent="1" vertex="1">
                    <mxGeometry x="300" y="180" width="120" height="80" as="geometry"/>
                </mxCell>
                <mxCell id="6l1E8BhhTPS93ofHY3in-14" value="Image" style="ellipse;whiteSpace=wrap;html=1;sketch=1;rounded=1;" parent="1" vertex="1">
                    <mxGeometry x="450" y="180" width="120" height="80" as="geometry"/>
                </mxCell>
                <mxCell id="6l1E8BhhTPS93ofHY3in-16" value="Avatar" style="ellipse;whiteSpace=wrap;html=1;sketch=1;rounded=1;" parent="1" vertex="1">
                    <mxGeometry x="600" y="180" width="120" height="80" as="geometry"/>
                </mxCell>
            </root>
        </mxGraphModel>
    </diagram>
</mxfile>